<?xml version="1.0" encoding="UTF-8"?>
<svg version="1.1" xmlns="http://www.w3.org/2000/svg" width="1024" height="1024">
<path d="M0 0 C-0.38714088 4.95890217 -2.88460929 7.3972934 -6.3203125 10.67578125 C-6.85719696 11.20463425 -7.39408142 11.73348724 -7.94723511 12.27836609 C-9.66393472 13.96614478 -11.39365954 15.63975504 -13.125 17.3125 C-14.83234059 18.97696328 -16.53672765 20.64433799 -18.23849487 22.3144989 C-19.29552018 23.35028797 -20.35605599 24.38251319 -21.42092896 25.41023254 C-24.16438421 28.08196875 -26.74680377 30.8284439 -29.24005127 33.73608398 C-32.75328847 37.76866027 -36.44145078 41.57658303 -40.23291016 45.34643555 C-40.91840439 46.03207581 -41.60389862 46.71771606 -42.31016541 47.4241333 C-44.55076594 49.6640437 -46.79487668 51.90040099 -49.0390625 54.13671875 C-50.60913669 55.70492456 -52.1789878 57.27335375 -53.74862671 58.84199524 C-57.86424213 62.95381022 -61.98285019 67.06261464 -66.10211182 71.17077637 C-70.29123938 75.34966801 -74.4775358 79.53139366 -78.6640625 83.71289062 C-85.42411088 90.46416959 -92.18587712 97.21372218 -98.9499054 103.96101379 C-101.57688831 106.58160719 -104.20302192 109.20302192 -106.82681274 111.82681274 C-108.6444221 113.6444221 -110.4679455 115.45552139 -112.296875 117.26171875 C-113.44794781 118.40361444 -114.59898906 119.54554195 -115.75 120.6875 C-116.33910156 121.26822266 -116.92820312 121.84894531 -117.53515625 122.44726562 C-120.64906764 125.43155316 -120.64906764 125.43155316 -123 129 C-123.66 129 -124.32 129 -125 129 C-125.20625 129.53109375 -125.4125 130.0621875 -125.625 130.609375 C-127.57961192 134.00773436 -130.22123717 136.51055928 -133 139.25 C-133.5465625 139.80429687 -134.093125 140.35859375 -134.65625 140.9296875 C-138.7466133 145 -138.7466133 145 -141 145 C-141 145.66 -141 146.32 -141 147 C-142.64453125 148.5859375 -142.64453125 148.5859375 -144.8125 150.375 C-147.06250857 152.23566282 -148.90350285 153.86872703 -150.63671875 156.2265625 C-151.08660156 156.81179688 -151.53648437 157.39703125 -152 158 C-152.66 158 -153.32 158 -154 158 C-154.25397458 158.57915287 -154.50794916 159.15830574 -154.76961994 159.7550087 C-156.13935311 162.2542682 -157.66713303 163.91041752 -159.68608093 165.91986084 C-160.45281631 166.68790039 -161.2195517 167.45593994 -162.00952148 168.24725342 C-162.85160156 169.0805719 -163.69368164 169.91389038 -164.5612793 170.77246094 C-165.44765579 171.65752319 -166.33403229 172.54258545 -167.24726868 173.45446777 C-169.17447964 175.3774133 -171.10340472 177.29843321 -173.03552818 179.21642303 C-176.09653315 182.25511345 -179.1503905 185.30092009 -182.20332336 188.34771729 C-187.03958317 193.17259604 -191.88048841 197.9927828 -196.72344381 202.81094003 C-205.37827081 211.42150973 -214.02765969 220.03753261 -222.67168933 228.65894151 C-225.70116232 231.68005634 -228.73342061 234.69833834 -231.76802194 237.71430159 C-233.20602122 239.14416812 -234.64285483 240.57519428 -236.07920837 242.00671387 C-237.82178868 243.74332446 -239.56617968 245.47812107 -241.31283569 247.21063232 C-245.53921347 251.4288064 -249.58802341 255.72850992 -253.48232937 260.25494766 C-255.42139757 262.48453255 -257.46605978 264.5861032 -259.55834961 266.671875 C-260.37867172 267.49212158 -261.19899384 268.31236816 -262.04417419 269.1574707 C-262.90487015 270.01300537 -263.7655661 270.86854004 -264.65234375 271.75 C-266.00254356 273.09807739 -266.00254356 273.09807739 -267.38002014 274.47338867 C-269.74711263 276.83586575 -272.11634639 279.19615112 -274.48669434 281.55535889 C-276.91550742 283.97385181 -279.34141103 286.39525946 -281.76757812 288.81640625 C-286.50907369 293.54692954 -291.25341898 298.27457973 -296 303 C-292.74142026 305.68420212 -289.45123426 308.06898041 -285.859375 310.28515625 C-284.87880127 310.89190186 -283.89822754 311.49864746 -282.88793945 312.1237793 C-281.33465942 313.08344604 -281.33465942 313.08344604 -279.75 314.0625 C-278.68547607 314.73514893 -277.62095215 315.40779785 -276.52416992 316.10083008 C-271.69564573 319.14593365 -266.89427704 322.11417237 -261.81640625 324.7265625 C-255.34913987 328.17799109 -250.44239444 330.8531475 -247.8515625 338.01953125 C-246.16344903 343.90448969 -245 349.86727156 -245 356 C-243.93072266 355.96519531 -243.93072266 355.96519531 -242.83984375 355.9296875 C-231.48396866 355.71571408 -231.48396866 355.71571408 -227 358 C-224.398107 360.88733274 -222.25168801 364.0103129 -220.1328125 367.26416016 C-218.90045945 369.15252874 -217.63997239 371.02005709 -216.375 372.88671875 C-206 388.25535479 -206 388.25535479 -206 391 C-211.50803204 389.39311869 -216.38163576 386.90640404 -221.4375 384.25 C-222.25798828 383.83234375 -223.07847656 383.4146875 -223.92382812 382.984375 C-227.93357814 380.88509646 -231.38949226 378.8002401 -234.7265625 375.7265625 C-237.72183202 373.0152482 -239.80741545 372.2269774 -243.9375 372.125 C-244.89527344 372.08632813 -245.85304688 372.04765625 -246.83984375 372.0078125 C-247.55269531 372.00523437 -248.26554687 372.00265625 -249 372 C-249.33644531 370.24236328 -249.33644531 370.24236328 -249.6796875 368.44921875 C-251.61241684 360.19774826 -253.66025013 353.9984704 -261.04760742 349.30761719 C-264.20925946 347.53128148 -267.40456163 345.84336372 -270.64697266 344.21923828 C-274.26228828 342.34593612 -277.6447895 340.14472675 -281.0625 337.9375 C-288.69275435 333.12530816 -296.45039556 328.53016807 -304.26708984 324.02783203 C-305.79117405 323.12385985 -307.26938801 322.14347999 -308.73828125 321.15234375 C-310.8539596 319.82377701 -310.8539596 319.82377701 -312.84849072 320.15723896 C-315.80898584 321.31688534 -317.44404167 323.07880237 -319.68586731 325.33183289 C-320.14170391 325.78581178 -320.59754052 326.23979067 -321.06719035 326.7075265 C-322.59343781 328.23117351 -324.10870618 329.76528929 -325.62426758 331.29956055 C-326.71628199 332.3940583 -327.80896547 333.48788887 -328.90226746 334.58110046 C-331.25624979 336.93778984 -333.60539135 339.29916577 -335.95090675 341.66428185 C-339.66333223 345.4077241 -343.38609598 349.14076902 -347.11027527 352.87251282 C-353.00437461 358.78111122 -358.8912145 364.69688417 -364.77513379 370.61561853 C-375.29854996 381.20085344 -385.83401337 391.77409082 -396.3723709 402.34444839 C-400.06818543 406.05205925 -403.76079159 409.76282763 -407.45071185 413.47630441 C-409.7537839 415.79326986 -412.05889707 418.10819715 -414.36445808 420.42268562 C-415.42833758 421.49160593 -416.49133374 422.56140629 -417.55334854 423.63217926 C-426.58756056 432.73964712 -426.58756056 432.73964712 -430.7507782 436.18415833 C-433.87007105 438.77726553 -436.4085917 441.69032951 -439.03634644 444.77191162 C-443.01067118 449.28143761 -447.33751544 453.45813732 -451.59765625 457.6953125 C-452.65158093 458.74731397 -453.70527518 459.79954633 -454.75875854 460.85198975 C-457.01350764 463.10359712 -459.2697959 465.3536462 -461.52731323 467.60247803 C-465.1031051 471.16465463 -468.67499662 474.73072542 -472.24633789 478.29736328 C-480.47154315 486.5105675 -488.70177088 494.71873276 -496.93205261 502.92684937 C-504.48028166 510.45485435 -512.02742426 517.98394025 -519.57051373 525.51709557 C-523.1146921 529.0563172 -526.66128794 532.59309227 -530.20980835 536.12796021 C-532.42311063 538.33375909 -534.63429953 540.54166748 -536.844944 542.7501297 C-537.86347935 543.76680642 -538.88287194 544.78262525 -539.90322495 545.79747772 C-562.43946749 568.21613182 -577.80835619 592.9547639 -591.66796875 621.4609375 C-601.37937837 641.41231948 -612.22867573 658.35455852 -633.625 667.21875 C-644.12263075 670.67191801 -654.90077734 671.25800768 -664.9609375 666.28125 C-670.88190089 662.56079791 -673.83358035 657.49079023 -675.52734375 650.796875 C-678.07562304 635.71780086 -673.27947614 622.62663077 -664.78515625 610.2265625 C-651.26178593 593.01500028 -629.09490537 584.37256942 -609.85009766 575.55712891 C-597.71193704 569.99115987 -586.37388691 564.47395386 -576 556 C-575.43555176 555.54544434 -574.87110352 555.09088867 -574.28955078 554.62255859 C-562.81951692 545.31692299 -552.09869635 535.00605053 -542.5234375 523.75390625 C-539.86082666 520.68849019 -537.10555279 517.62210262 -534 515 C-533.34 515 -532.68 515 -532 515 C-531.73981948 514.41477998 -531.47963897 513.82955997 -531.2115742 513.22660601 C-529.91671865 510.84694726 -528.53021716 509.28391764 -526.61481285 507.37430382 C-525.55859594 506.31396386 -525.55859594 506.31396386 -524.48104131 505.23220289 C-523.31665893 504.07860538 -523.31665893 504.07860538 -522.12875366 502.90170288 C-521.30625079 502.07890229 -520.48374791 501.2561017 -519.63632071 500.40836775 C-517.35271416 498.12591077 -515.06467715 495.84800477 -512.77472782 493.57191467 C-510.306202 491.11613226 -507.84347471 488.65454743 -505.38008118 486.19361877 C-501.11123368 481.93054573 -496.83885068 477.67104275 -492.56415939 473.4138298 C-486.38266501 467.25742578 -480.20763883 461.0945664 -474.03437419 454.92991133 C-464.01730307 444.92697606 -453.99650448 434.92778442 -443.97265625 424.93164062 C-443.0726824 424.03415021 -443.0726824 424.03415021 -442.15452726 423.11852868 C-437.89478293 418.87058742 -433.63490588 414.62277926 -429.375 410.375 C-424.50544037 405.51929947 -419.63594353 400.663536 -414.76660156 395.80761719 C-414.1667409 395.20941278 -413.56688023 394.61120837 -412.94884197 393.99487655 C-402.960457 384.03382767 -392.97597166 374.0688789 -382.99428332 364.10111964 C-376.83310559 357.94892128 -370.66838397 351.80031457 -364.4991094 345.65623535 C-360.27642846 341.45035874 -356.05724636 337.24099433 -351.84084557 333.02882193 C-349.40496693 330.59564306 -346.96742938 328.16418487 -344.52554131 325.73703575 C-341.88487252 323.11067585 -339.25032302 320.4783305 -336.61727905 317.84432983 C-335.83656268 317.07080339 -335.05584632 316.29727694 -334.25147188 315.5003103 C-333.55254276 314.79863249 -332.85361365 314.09695468 -332.13350487 313.3740139 C-331.52399872 312.76635134 -330.91449258 312.15868878 -330.28651655 311.5326122 C-328.78568837 310.07819405 -328.78568837 310.07819405 -329 308 C-331.29585075 306.36364556 -331.29585075 306.36364556 -334.2734375 304.69140625 C-335.39975586 304.03213135 -336.52607422 303.37285645 -337.68652344 302.69360352 C-338.91601268 301.98323058 -340.14550493 301.27286285 -341.375 300.5625 C-343.24524693 299.47091035 -345.1138804 298.37659508 -346.98242188 297.28208923 C-348.229988 296.55150084 -349.47803655 295.82173561 -350.7265625 295.0927887 C-355.77303801 292.14427438 -360.77322503 289.12680493 -365.75 286.0625 C-367.18223644 285.18350376 -368.6145264 284.30459472 -370.046875 283.42578125 C-370.71525391 283.01537598 -371.38363281 282.6049707 -372.07226562 282.18212891 C-391.43001198 270.3115352 -411.16710238 259.05489309 -431 248 C-431.928125 248.845625 -432.85625 249.69125 -433.8125 250.5625 C-445.32599794 260.33854855 -455.8975398 264.64570298 -471 264 C-471.11654938 264.61428864 -471.23309875 265.22857727 -471.35317993 265.86148071 C-472.49315264 271.73188861 -473.84029033 277.50119132 -475.3984375 283.2734375 C-475.62883224 284.13662598 -475.85922699 284.99981445 -476.09660339 285.88916016 C-476.85287102 288.71864067 -477.61382621 291.54683572 -478.375 294.375 C-478.91804949 296.40181204 -479.46093363 298.42866839 -480.00366211 300.45556641 C-483.71715717 314.3063411 -487.48722647 328.14140856 -491.27355957 341.97241211 C-496.45856936 360.9217565 -501.54689813 379.89679053 -506.625 398.875 C-506.83151562 399.64665119 -507.03803123 400.41830238 -507.2508049 401.21333694 C-512.66257515 421.4356646 -518.0618158 441.66112149 -523.32275391 461.92333984 C-523.5040686 462.6185524 -523.6853833 463.31376495 -523.87219238 464.03004456 C-524.33981491 465.82338476 -524.80503885 467.61734996 -525.27001953 469.41137695 C-526 472 -526 472 -527 474 C-529.22941405 473.68926976 -531.45852212 473.37634375 -533.6875 473.0625 C-535.54955078 472.80146484 -535.54955078 472.80146484 -537.44921875 472.53515625 C-540.32605182 472.10157415 -543.15157783 471.58336028 -546 471 C-542.82304978 457.48462079 -539.52284364 444.00798307 -536.0625 430.5625 C-535.58661925 428.708916 -535.11079094 426.85531854 -534.63500977 425.00170898 C-533.35708472 420.02668486 -532.07591596 415.05250189 -530.7935791 410.07861328 C-530.00079423 407.00308115 -529.2088417 403.92733557 -528.41699219 400.8515625 C-522.79547037 379.02528781 -517.12693601 357.21185738 -511.3515625 335.42578125 C-511.15302988 334.67671824 -510.95449726 333.92765522 -510.7499485 333.15589333 C-508.79042356 325.76353984 -506.82859494 318.37180875 -504.85981083 310.98191547 C-500.07755554 293.0264231 -495.44532636 275.04234637 -491 257 C-491.77794922 256.70883301 -492.55589844 256.41766602 -493.35742188 256.11767578 C-501.76050458 252.56360034 -507.8344428 243.28566922 -511.1875 235.1015625 C-515.92281459 221.52041719 -514.98807612 208.93308449 -509 196 C-506.66788601 192.28055167 -504.05642866 189.14244447 -501 186 C-500.40574219 185.35546875 -499.81148437 184.7109375 -499.19921875 184.046875 C-491.20602387 176.17349246 -479.48267514 171.97902423 -468.375 171.75 C-454.91327462 171.95182497 -442.81404263 177.50829323 -433.0703125 186.67578125 C-423.56518983 197.34662651 -420.61169775 209.08123048 -420.796875 223.03125 C-421 226 -421 226 -422 229 C-420.9790625 229.37705078 -420.9790625 229.37705078 -419.9375 229.76171875 C-416.48580912 231.21675334 -413.25464796 232.9701229 -410 234.8125 C-409.30704834 235.20356934 -408.61409668 235.59463867 -407.90014648 235.99755859 C-401.31000998 239.75609222 -394.87232561 243.7487284 -388.43603516 247.76318359 C-381.28688535 252.21833867 -374.09459826 256.59746305 -366.875 260.9375 C-365.85672119 261.55189941 -364.83844238 262.16629883 -363.78930664 262.79931641 C-359.02600934 265.65690515 -354.24289319 268.4371433 -349.3515625 271.0703125 C-344.25895086 273.81911873 -339.3700236 276.81459291 -334.5 279.9375 C-333.68265381 280.45530029 -332.86530762 280.97310059 -332.02319336 281.5065918 C-328.47949636 283.75497013 -324.95014908 286.01750255 -321.47265625 288.3671875 C-320.51230469 289.00914062 -319.55195313 289.65109375 -318.5625 290.3125 C-317.75941406 290.86550781 -316.95632813 291.41851562 -316.12890625 291.98828125 C-314.10342627 293.1813877 -314.10342627 293.1813877 -312.10718918 292.78135109 C-309.47447174 291.80513279 -308.13471746 290.50113099 -306.15606689 288.51010132 C-305.40485565 287.76156891 -304.65364441 287.0130365 -303.87966919 286.24182129 C-303.06505219 285.41484741 -302.25043518 284.58787354 -301.41113281 283.73583984 C-300.5455777 282.86911652 -299.68002258 282.00239319 -298.78823853 281.10940552 C-296.90665766 279.22309879 -295.02805986 277.33429682 -293.15396881 275.44059372 C-290.18479974 272.44036413 -287.2052594 269.45057945 -284.2243042 266.46206665 C-279.50365784 261.72692421 -274.7902793 256.98462 -270.07982516 252.23934042 C-261.66319975 243.76092696 -253.23458962 235.29443697 -244.80299258 226.83091509 C-241.84838696 223.86454845 -238.89699979 220.89502782 -235.94834185 217.92274928 C-233.66960682 215.62678916 -231.38769235 213.33399116 -229.10644531 211.04052734 C-228.29992523 210.22569885 -227.49340515 209.41087036 -226.66244507 208.5713501 C-222.4760782 204.36872722 -218.21282344 200.33263337 -213.70336533 196.47739601 C-211.24799152 194.34775335 -208.96900462 192.06343859 -206.6875 189.75 C-206.22947998 189.28819336 -205.77145996 188.82638672 -205.29956055 188.35058594 C-203.86383825 186.90287278 -202.43147568 185.45191143 -201 184 C-195.4101589 178.33035831 -189.82448542 172.72626553 -183.76953125 167.546875 C-181.04345107 165.16381153 -178.52411115 162.59345487 -176 160 C-172.81782756 156.73040524 -169.58346995 153.60387744 -166.125 150.625 C-161.87380425 146.94763486 -157.93427691 143.01111825 -154 139 C-150.11716293 135.04132627 -146.23659338 131.14941662 -142.03125 127.53125 C-137.62796818 123.73857952 -133.57013076 119.64426794 -129.5 115.5 C-124.75642602 110.67002212 -119.95878194 106.01947807 -114.82617188 101.60351562 C-112.2565159 99.3471653 -109.88941128 96.94698745 -107.5 94.5 C-103.83460203 90.74627918 -100.04490379 87.26042079 -96.07958984 83.82568359 C-92.65991781 80.82353433 -89.36498693 77.69232839 -86.0625 74.5625 C-84.56383819 73.14709718 -83.06513923 71.73173371 -81.56640625 70.31640625 C-80.80859863 69.59984863 -80.05079102 68.88329102 -79.27001953 68.14501953 C-75.68531566 64.75770955 -72.09243536 61.37910587 -68.5 58 C-67.08458753 56.66801963 -65.66922306 55.33598826 -64.25390625 54.00390625 C-63.55281738 53.34406738 -62.85172852 52.68422852 -62.12939453 52.00439453 C-59.99095331 49.99148437 -57.85285696 47.9782085 -55.71484375 45.96484375 C-52.18038247 42.63660973 -48.64480829 39.30956191 -45.10839844 35.98339844 C-43.69207457 34.65104374 -42.2760635 33.31835646 -40.86035156 31.98535156 C-36.25064029 27.64568287 -31.6310655 23.31687121 -27 19 C-26.08734375 18.14664063 -25.1746875 17.29328125 -24.234375 16.4140625 C-19.68231228 12.22910161 -14.97374638 8.27178516 -10.125 4.4375 C-9.57690674 3.99494873 -9.02881348 3.55239746 -8.46411133 3.09643555 C-5.26319427 0.61605841 -4.20641361 0 0 0 Z " fill="#FB912F" transform="translate(810,141)"/>
<path d="M0 0 C3.21337242 4.09026911 5.28919087 8.44071134 7.5 13.125 C7.89058594 13.929375 8.28117187 14.73375 8.68359375 15.5625 C11.37788515 21.24137683 13.35862882 26.93497257 15 33 C13.83723958 33.85677083 12.67447917 34.71354167 11.51171875 35.5703125 C10.75205811 36.13008789 9.99239746 36.68986328 9.2097168 37.26660156 C7.50685242 38.52129168 5.80388774 39.77584569 4.10083008 41.03027344 C-0.26842359 44.24883815 -4.63626644 47.46926662 -9 50.6953125 C-15.94439062 55.8262043 -22.8897448 60.94920111 -29.9375 65.9375 C-36.49998233 70.58459351 -42.91467219 75.42160944 -49.33569336 80.26147461 C-54.84516912 84.40619398 -60.3976324 88.48189576 -66 92.5 C-73.22564335 97.68498323 -80.35587614 102.98709202 -87.45996094 108.3371582 C-93.19768735 112.65601445 -98.96263142 116.93542359 -104.75 121.1875 C-111.17247526 125.90695164 -117.56532518 130.66279521 -123.93359375 135.45507812 C-129.18157162 139.39891778 -134.46162682 143.29804058 -139.75 147.1875 C-148.99780239 153.9569627 -148.99780239 153.9569627 -158.125 160.88671875 C-160.29255042 162.47998611 -162.38307624 163.84635217 -164.6875 165.20703125 C-168.39708037 167.50655422 -171.25194213 169.56147533 -174 173 C-174.3479489 177.27931956 -173.7085766 180.75091151 -172.79296875 184.90625 C-170.70449519 194.41518427 -173.57734527 203.84794891 -178.18359375 212.18359375 C-185.23572009 223.11818104 -194.44672409 230.40769741 -207.0625 233.9375 C-220.21987786 236.69216559 -232.70305299 234.67737364 -244.33203125 227.84765625 C-255.34608143 220.22006367 -261.94571796 209.99781907 -265 197 C-266.54678583 183.05170668 -264.77353049 170.37309507 -256 159 C-257.63256246 154.81832674 -260.7086575 152.05532357 -263.85546875 148.984375 C-264.43533035 148.40971497 -265.01519196 147.83505493 -265.61262512 147.24298096 C-267.4662186 145.40715981 -269.3263386 143.57814585 -271.1875 141.75 C-273.02998925 139.93534292 -274.87091987 138.11917447 -276.70881653 136.29986572 C-277.85023814 135.17046715 -278.99431757 134.04374523 -280.14164734 132.92034912 C-282.9318021 130.16434555 -285.58116086 127.35524513 -288.12426758 124.36914062 C-292.72018638 119.05704923 -297.76161625 114.19182797 -302.77125549 109.27584076 C-305.18317815 106.90644036 -307.58540194 104.52730367 -309.98833466 102.14879227 C-314.44712768 97.7355706 -318.90992814 93.32657551 -323.38867188 88.93359375 C-326.51973879 85.86174794 -329.63859994 82.77797197 -332.74961853 79.68582916 C-333.9349203 78.51228793 -335.12474899 77.34330099 -336.31910706 76.17897797 C-337.98022353 74.5586573 -339.62535321 72.92361236 -341.26757812 71.28417969 C-342.2079895 70.35788757 -343.14840088 69.43159546 -344.11730957 68.47723389 C-346 66 -346 66 -345.96594238 63.84454346 C-344.31444126 60.69087131 -341.58482565 58.55544245 -338.9375 56.25 C-338.36966797 55.74339844 -337.80183594 55.23679687 -337.21679688 54.71484375 C-335.8180135 53.46886864 -334.40989267 52.23339027 -333 51 C-328.37074294 54.87410301 -323.96335377 58.88777497 -319.69750977 63.15722656 C-319.11127335 63.74010437 -318.52503693 64.32298218 -317.92103577 64.92352295 C-316.00853997 66.82661549 -314.09974621 68.73336581 -312.19140625 70.640625 C-310.85626879 71.97254602 -309.52105745 73.304393 -308.18577576 74.63616943 C-305.40112814 77.41485505 -302.61852898 80.19557364 -299.8371582 82.97753906 C-296.26539859 86.54940095 -292.6867707 90.11429662 -289.10640049 93.67752457 C-286.35361051 96.41923309 -283.6053399 99.16543685 -280.85835075 101.91295624 C-279.53979557 103.23032856 -278.21961213 104.54607319 -276.89779854 105.86017609 C-275.05935363 107.688885 -273.2272798 109.52374592 -271.39672852 111.36035156 C-270.84668152 111.90477905 -270.29663452 112.44920654 -269.72991943 113.01013184 C-266 116.77167459 -266 116.77167459 -266 119 C-265.45730469 119.20496094 -264.91460937 119.40992188 -264.35546875 119.62109375 C-261.07479761 121.54161931 -258.80774309 124.24851127 -256.3125 127.0625 C-255.24881023 128.23826029 -254.18369405 129.41273165 -253.1171875 130.5859375 C-252.5922168 131.1644043 -252.06724609 131.74287109 -251.52636719 132.33886719 C-245.25091812 139.2275416 -245.25091812 139.2275416 -238 145 C-235.82540575 144.84402876 -235.82540575 144.84402876 -233.5625 144.1875 C-232.41974609 143.89939453 -232.41974609 143.89939453 -231.25390625 143.60546875 C-229.87412294 143.23481639 -228.49790256 142.85010452 -227.12890625 142.44140625 C-213.61469566 139.63937727 -201.24904583 143.6503838 -190 151 C-188.62913085 152.29470975 -187.28318535 153.61833763 -186 155 C-180.7325365 153.40317051 -176.96374102 150.01770613 -172.75 146.625 C-166.68071161 141.81521143 -160.54648326 137.17013602 -154.1875 132.75 C-148.1199799 128.52740402 -142.24146817 124.15056813 -136.41015625 119.60546875 C-132.51133732 116.59615814 -128.50505165 113.74046637 -124.5 110.875 C-117.71551055 106.01774092 -111.05424646 101.02061946 -104.4375 95.9375 C-97.43123133 90.55906642 -90.34494341 85.34465485 -83.09912109 80.29443359 C-77.66692938 76.50001099 -72.3611302 72.55858524 -67.07763672 68.56054688 C-62.20727797 64.88309895 -57.27443792 61.30263011 -52.3125 57.75 C-44.68019412 52.2798768 -37.18227316 46.64738337 -29.78466797 40.86328125 C-25.65072732 37.65627101 -21.55740538 34.65166746 -17.03125 32.01953125 C-7.99723706 26.79198964 -7.99723706 26.79198964 -3.09765625 17.91796875 C-2.11346973 13.63876399 -1.52872536 9.3637064 -1.2109375 4.98608398 C-1 3 -1 3 0 0 Z " fill="#048ACC" transform="translate(625,655)"/>
<path d="M0 0 C8.99338041 7.31948558 14.89767614 17.76462299 16.55859375 29.25390625 C17.23008696 41.23942661 17.23008696 41.23942661 15.55859375 46.25390625 C16.23921875 46.50527344 16.91984375 46.75664062 17.62109375 47.015625 C21.07278463 48.47065959 24.30394579 50.22402915 27.55859375 52.06640625 C28.25154541 52.45747559 28.94449707 52.84854492 29.65844727 53.25146484 C36.24858377 57.00999847 42.68626814 61.00263465 49.12255859 65.01708984 C56.2717084 69.47224492 63.46399549 73.8513693 70.68359375 78.19140625 C71.70187256 78.80580566 72.72015137 79.42020508 73.76928711 80.05322266 C78.53258441 82.9108114 83.31570056 85.69104955 88.20703125 88.32421875 C93.29944632 91.07291888 98.19004339 94.0664265 103.05859375 97.19140625 C104.70175298 98.24099491 106.34498184 99.29047457 107.98828125 100.33984375 C109.15955566 101.08959473 109.15955566 101.08959473 110.35449219 101.85449219 C112.28905009 103.08276932 114.23418737 104.28877949 116.19140625 105.48046875 C117.17882812 106.08632813 118.16625 106.6921875 119.18359375 107.31640625 C120.02148438 107.82300781 120.859375 108.32960938 121.72265625 108.8515625 C123.55859375 110.25390625 123.55859375 110.25390625 124.55859375 113.25390625 C123.37152291 114.29606195 122.18390734 115.33759718 120.99609375 116.37890625 C120.00416016 117.24902344 120.00416016 117.24902344 118.9921875 118.13671875 C115.86232834 120.85964598 112.71122492 123.55740759 109.55859375 126.25390625 C105.26664262 123.65020818 100.97500647 121.0459916 96.68359375 118.44140625 C96.04467194 118.05364014 95.40575012 117.66587402 94.74746704 117.26635742 C87.07267906 112.60799599 79.40269099 107.9421288 71.74609375 103.25390625 C69.01780433 101.58579952 66.28864277 99.91913155 63.55859375 98.25390625 C62.97029785 97.89490234 62.38200195 97.53589844 61.77587891 97.16601562 C43.62032952 86.11169073 25.12391711 75.60225114 6.55859375 65.25390625 C5.63046875 66.09953125 4.70234375 66.94515625 3.74609375 67.81640625 C-7.76740419 77.5924548 -18.33894605 81.89960923 -33.44140625 81.25390625 C-33.55795563 81.86819489 -33.674505 82.48248352 -33.79458618 83.11538696 C-34.93455889 88.98579486 -36.28169658 94.75509757 -37.83984375 100.52734375 C-38.07023849 101.39053223 -38.30063324 102.2537207 -38.53800964 103.14306641 C-39.29427727 105.97254692 -40.05523246 108.80074197 -40.81640625 111.62890625 C-41.35945574 113.65571829 -41.90233988 115.68257464 -42.44506836 117.70947266 C-46.15856342 131.56024735 -49.92863272 145.39531481 -53.71496582 159.22631836 C-58.89997561 178.17566275 -63.98830438 197.15069678 -69.06640625 216.12890625 C-69.27292187 216.90055744 -69.47943748 217.67220863 -69.69221115 218.46724319 C-75.1039814 238.68957085 -80.50322205 258.91502774 -85.76416016 279.17724609 C-86.0361322 280.22006493 -86.0361322 280.22006493 -86.31359863 281.28395081 C-86.78122116 283.07729101 -87.2464451 284.87125621 -87.71142578 286.6652832 C-88.44140625 289.25390625 -88.44140625 289.25390625 -89.44140625 291.25390625 C-91.6708203 290.94317601 -93.89992837 290.63025 -96.12890625 290.31640625 C-97.99095703 290.05537109 -97.99095703 290.05537109 -99.890625 289.7890625 C-102.76745807 289.3554804 -105.59298408 288.83726653 -108.44140625 288.25390625 C-105.26445603 274.73852704 -101.96424989 261.26188932 -98.50390625 247.81640625 C-98.0280255 245.96282225 -97.55219719 244.10922479 -97.07641602 242.25561523 C-95.79849097 237.28059111 -94.51732221 232.30640814 -93.23498535 227.33251953 C-92.44220048 224.2569874 -91.65024795 221.18124182 -90.85839844 218.10546875 C-85.23687662 196.27919406 -79.56834226 174.46576363 -73.79296875 152.6796875 C-73.59443613 151.93062449 -73.39590351 151.18156147 -73.19135475 150.40979958 C-71.23182981 143.01744609 -69.27000119 135.625715 -67.30121708 128.23582172 C-62.51896179 110.28032935 -57.88673261 92.29625262 -53.44140625 74.25390625 C-54.21935547 73.96273926 -54.99730469 73.67157227 -55.79882812 73.37158203 C-64.20191083 69.81750659 -70.27584905 60.53957547 -73.62890625 52.35546875 C-78.36422084 38.77432344 -77.42948237 26.18699074 -71.44140625 13.25390625 C-69.10929226 9.53445792 -66.49783491 6.39635072 -63.44140625 3.25390625 C-62.84714844 2.609375 -62.25289063 1.96484375 -61.640625 1.30078125 C-44.29191632 -15.78788254 -18.51564633 -13.24239025 0 0 Z " fill="#048ACC" transform="translate(372.44140625,323.74609375)"/>
<path d="M0 0 C1.68302076 3.36604152 0.22060772 6.84368277 -0.5625 10.375 C-0.70751953 11.14328125 -0.85253906 11.9115625 -1.00195312 12.703125 C-1.94477604 16.94399381 -2.51966604 18.59877243 -5.96484375 21.4765625 C-9 23 -9 23 -12 24 C-11.34 29.61 -10.68 35.22 -10 41 C-8.58847656 40.45730469 -7.17695312 39.91460938 -5.72265625 39.35546875 C-3.83597645 38.63271082 -1.9492555 37.91006029 -0.0625 37.1875 C0.86369141 36.83107422 1.78988281 36.47464844 2.74414062 36.10742188 C18.71308773 30 18.71308773 30 23 30 C25.42230341 32.74795377 27.55581969 35.65856039 29.74609375 38.59375 C30.48988281 39.3878125 31.23367188 40.181875 32 41 C35.89955021 41.41583389 35.89955021 41.41583389 37.97265625 39.42578125 C38.66230469 38.72839844 39.35195313 38.03101563 40.0625 37.3125 C48.69342931 29.31827859 60.18901465 25.37866789 71.9609375 25.82421875 C84.47441031 26.90296641 97.62295795 32.34574077 106 42 C110.63324161 48.17140279 114.2595524 54.44892419 116 62 C116.15339844 62.65871094 116.30679688 63.31742188 116.46484375 63.99609375 C118.39143953 75.44743273 115.94952852 88.39637647 109.65234375 98.0703125 C108.18313195 100.13112692 106.63474243 102.06839151 105 104 C104.49855469 104.6084375 103.99710938 105.216875 103.48046875 105.84375 C96.06649268 114.06947528 85.23498151 118.50582837 74.33984375 119.25 C61.46467176 119.76734726 51.56425015 116.39103322 41 109 C40.4946875 108.42378906 39.989375 107.84757813 39.46875 107.25390625 C38.9840625 106.84011719 38.499375 106.42632813 38 106 C34.37130728 106.45478007 31.76491656 108.24948024 28.73828125 110.2109375 C27.70944824 110.87206543 26.68061523 111.53319336 25.62060547 112.21435547 C23.38541663 113.67423895 21.15389178 115.13857453 18.92626953 116.60986328 C17.79376797 117.35521244 16.66079343 118.09984344 15.52734375 118.84375 C14.96746765 119.21160614 14.40759155 119.57946228 13.83074951 119.95846558 C10.57960891 122.06572601 7.30859925 123.92004671 3.81640625 125.59375 C-3.66977668 129.33206203 -7.74025051 132.30463652 -10.58984375 140.45703125 C-12.48363134 146.88924264 -13.88613947 153.39051063 -15 160 C-17.13649637 156.3491288 -17.89249174 152.4863307 -18.7265625 148.390625 C-18.87910492 147.66381531 -19.03164734 146.93700562 -19.18881226 146.18817139 C-19.67274429 143.87649709 -20.14897008 141.56331307 -20.625 139.25 C-20.95261713 137.67827947 -21.28073652 136.10666354 -21.609375 134.53515625 C-22.4120738 130.6912917 -23.20786712 126.84605523 -24 123 C-20.7 120.69 -17.4 118.38 -14 116 C-15.63973866 114.32610012 -17.28517532 112.65744759 -18.95703125 111.015625 C-20.2719002 109.71835468 -21.56342557 108.39676063 -22.82421875 107.046875 C-26.85284757 103.02669194 -29.40537872 101.7095493 -35.125 101.25 C-38.9393074 100.8149079 -40.47681192 100.55666446 -43.13671875 97.7265625 C-46.58548975 91.85802444 -47.45101228 87.63319899 -46 81 C-44.37358808 69.7691977 -48.88276807 61.64049944 -54 52 C-54.58007812 52.20496094 -55.16015625 52.40992188 -55.7578125 52.62109375 C-56.53898438 52.89050781 -57.32015625 53.15992188 -58.125 53.4375 C-58.89070312 53.70433594 -59.65640625 53.97117187 -60.4453125 54.24609375 C-63 55 -63 55 -69 56 C-68.34 50.72 -67.68 45.44 -67 40 C-64.9271875 41.299375 -64.9271875 41.299375 -62.8125 42.625 C-59.30082633 44.62507663 -59.30082633 44.62507663 -55.375 44.75 C-51.88799166 42.18062544 -48.9410765 39.16992107 -46 36 C-44.11688265 38.82467602 -43.65872943 39.95206572 -43.13720703 43.14501953 C-42.99590363 43.97663605 -42.85460022 44.80825256 -42.70901489 45.66506958 C-42.5601181 46.56192474 -42.41122131 47.45877991 -42.2578125 48.3828125 C-41.9114944 50.29214744 -41.56244601 52.20098879 -41.2109375 54.109375 C-40.66228984 57.10786647 -40.12820992 60.10519038 -39.640625 63.11425781 C-37.92168167 76.23215083 -37.92168167 76.23215083 -30.55148315 86.61300659 C-28.12924171 88.29950069 -25.64679683 89.69779601 -23 91 C-21.68 91.66 -20.36 92.32 -19 93 C-16.525 87.06 -16.525 87.06 -14 81 C-13.34 81 -12.68 81 -12 81 C-10.33333333 91 -8.66666667 101 -7 111 C-5.9584375 110.32195312 -4.916875 109.64390625 -3.84375 108.9453125 C6.03950508 102.52404105 15.98509738 96.21382249 26 90 C25.7834375 88.96552734 25.7834375 88.96552734 25.5625 87.91015625 C23.5292607 77.61688229 23.85205469 69.26027446 26 59 C25.24332031 58.70351563 24.48664063 58.40703125 23.70703125 58.1015625 C20.71843944 56.88542557 17.87143959 55.46910863 15 54 C14.731875 55.134375 14.46375 56.26875 14.1875 57.4375 C13.5996875 59.2009375 13.5996875 59.2009375 13 61 C11.515 61.495 11.515 61.495 10 62 C9.34 58.7 8.68 55.4 8 52 C4.83394848 52 3.10453291 52.60008925 0.18359375 53.75 C-1.20956055 54.29140625 -1.20956055 54.29140625 -2.63085938 54.84375 C-3.59830078 55.2253125 -4.56574219 55.606875 -5.5625 56 C-7.47929961 56.75298299 -9.39721657 57.5031298 -11.31640625 58.25 C-12.16662354 58.58515625 -13.01684082 58.9203125 -13.89282227 59.265625 C-16 60 -16 60 -18 60 C-20.24359353 52.09643187 -21.85951694 44.06975816 -23.375 36 C-23.57899414 34.98478271 -23.78298828 33.96956543 -23.99316406 32.92358398 C-24.1681543 31.95880127 -24.34314453 30.99401855 -24.5234375 30 C-24.68763184 29.13375 -24.85182617 28.2675 -25.02099609 27.375 C-24.99399884 24.32117071 -24.10978693 23.15149709 -22 21 C-21.34 21 -20.68 21 -20 21 C-20 20.34 -20 19.68 -20 19 C-18.671875 17.6953125 -18.671875 17.6953125 -16.75 16.125 C-10.82166218 11.10297282 -5.44825893 5.52998282 0 0 Z " fill="#048ACC" transform="translate(707,505)"/>
<path d="M0 0 C8.78829105 4.93182578 17.31956541 10.25562849 25.76196289 15.75585938 C29.88276298 18.43460878 33.93316079 21.04874741 38.35546875 23.203125 C44.06127862 26.08502287 47.81703006 28.68078976 49.95703125 34.890625 C51.62583744 40.80232977 53 46.83849636 53 53 C53.71285156 52.97679687 54.42570313 52.95359375 55.16015625 52.9296875 C66.51603134 52.71571408 66.51603134 52.71571408 71 55 C73.601893 57.88733274 75.74831199 61.0103129 77.8671875 64.26416016 C79.09954055 66.15252874 80.36002761 68.02005709 81.625 69.88671875 C92 85.25535479 92 85.25535479 92 88 C86.49196796 86.39311869 81.61836424 83.90640404 76.5625 81.25 C75.74201172 80.83234375 74.92152344 80.4146875 74.07617188 79.984375 C70.06642186 77.88509646 66.61050774 75.8002401 63.2734375 72.7265625 C60.27816798 70.0152482 58.19258455 69.2269774 54.0625 69.125 C53.10472656 69.08632813 52.14695312 69.04765625 51.16015625 69.0078125 C50.09087891 69.00394531 50.09087891 69.00394531 49 69 C48.66355469 67.24236328 48.66355469 67.24236328 48.3203125 65.44921875 C46.38758316 57.19774826 44.33974987 50.9984704 36.95239258 46.30761719 C33.79074054 44.53128148 30.59543837 42.84336372 27.35302734 41.21923828 C23.73770028 39.34593019 20.35527411 37.14464293 16.9375 34.9375 C6.46479244 28.33574054 -4.24394961 22.12633299 -15 16 C-15 15.34 -15 14.68 -15 14 C-13.49609375 12.51953125 -13.49609375 12.51953125 -11.4375 10.8125 C-7.41324753 7.39798275 -3.67809995 3.78154651 0 0 Z " fill="#048ACC" transform="translate(512,444)"/>
<path d="M0 0 C1.8125 2.25 1.8125 2.25 1.875 5.8125 C0.68295388 9.66911979 0.1691075 10.25351269 -3.1875 12.25 C-12.10268332 14.96188274 -21.51636066 15.9016906 -30.74645996 16.89910889 C-52.52377507 19.28013823 -74.01735045 22.5349271 -94.9921875 29.015625 C-98.36634116 30.05127127 -101.68223361 30.77661997 -105.1875 31.25 C-85.25770238 8.46524515 -28.80488367 -15.81444594 0 0 Z " fill="#FB912F" transform="translate(865.1875,227.75)"/>
<path d="M0 0 C2 2 2 2 2.26953125 4.8046875 C1.28327435 16.49683447 -9.74727987 26.6169051 -18.296875 33.8515625 C-35.57846733 47.96140461 -55.20275133 59.1829018 -74.5 70.25 C-75.50998047 70.83563721 -76.51996094 71.42127441 -77.56054688 72.0246582 C-78.49962891 72.55792725 -79.43871094 73.09119629 -80.40625 73.640625 C-81.24478516 74.12047852 -82.08332031 74.60033203 -82.94726562 75.09472656 C-83.62466797 75.3934668 -84.30207031 75.69220703 -85 76 C-85.66 75.67 -86.32 75.34 -87 75 C-79.44850996 67.42526471 -71.89426529 59.85328836 -64.33656311 52.28475094 C-60.82671382 48.76969938 -57.31779408 45.25373056 -53.81103516 41.7355957 C-50.42216382 38.33580069 -47.03080336 34.93850656 -43.63775635 31.5428791 C-42.34841308 30.25169859 -41.05994521 28.95964327 -39.7723999 27.66666985 C-31.66383444 19.5253048 -23.62669151 11.47258257 -14.3125 4.6875 C-13.42175781 4.03136719 -12.53101563 3.37523437 -11.61328125 2.69921875 C-7.73009958 0.17428 -4.5258811 -1.87277839 0 0 Z " fill="#FB912F" transform="translate(857,148)"/>
<path d="M0 0 C5.37219794 0.42134886 8.09254433 1.29497139 12 5 C21.82208956 20.55498264 24.14917813 37.38247692 20.875 55.3125 C20.28578597 57.89133906 19.66838189 60.44237335 19 63 C18.80132324 63.77778809 18.60264648 64.55557617 18.39794922 65.35693359 C10.90934765 94.0604349 10.90934765 94.0604349 2 100 C2.11593506 99.24493164 2.23187012 98.48986328 2.35131836 97.71191406 C2.88422751 94.22523411 3.41089232 90.73763703 3.9375 87.25 C4.11990234 86.06277344 4.30230469 84.87554687 4.49023438 83.65234375 C7.85226044 61.27958851 7.34046365 42.04178845 0.06982422 20.55834961 C-3.63439909 9.51541458 -3.63439909 9.51541458 -2.44140625 4.78515625 C-1.22070312 2.39257812 -1.22070312 2.39257812 0 0 Z " fill="#FB912F" transform="translate(696,97)"/>
<path d="M0 0 C2.38930409 3.02570752 4.26740787 6.14652305 6.1015625 9.53515625 C6.67390625 10.59154297 7.24625 11.64792969 7.8359375 12.73632812 C8.42632813 13.83396484 9.01671875 14.93160156 9.625 16.0625 C10.223125 17.16400391 10.82125 18.26550781 11.4375 19.40039062 C17.29955403 30.25580063 17.29955403 30.25580063 16.0625 38.1875 C15.77052734 40.09595703 15.77052734 40.09595703 15.47265625 42.04296875 C15.31667969 43.01878906 15.16070313 43.99460937 15 45 C15.84046875 45.26554688 16.6809375 45.53109375 17.546875 45.8046875 C21.20649358 47.07147855 24.73769834 48.50279288 28.25 50.125 C28.87390625 50.3828125 29.4978125 50.640625 30.140625 50.90625 C33.78989806 52.62077916 34.90371876 53.74135099 36.3203125 57.546875 C36.57886254 59.0260138 36.80256423 60.51147092 37 62 C37.13857422 62.86157715 37.27714844 63.7231543 37.41992188 64.61083984 C37.86119887 67.44469676 38.24897539 70.28179353 38.625 73.125 C38.82609375 74.56939453 38.82609375 74.56939453 39.03125 76.04296875 C39.66288803 80.72869172 40.17558833 85.25911514 40 90 C35.92537757 86.08354221 32.3517703 81.90200381 28.8125 77.5 C28.24442627 76.7972998 27.67635254 76.09459961 27.09106445 75.37060547 C22.74012401 69.96872208 18.48428182 64.50110427 14.30078125 58.96875 C12.78497119 57.01286605 11.21997077 55.09399542 9.60546875 53.21875 C4.18250799 46.91253994 4.18250799 46.91253994 3.3125 42.5625 C4.0969524 38.49761027 5.1714925 34.58799215 6.44140625 30.6484375 C7.11606404 27.44971034 7.32423306 26.02208902 6 23 C3.49913165 20.90703654 0.75743127 19.31299412 -2.0625 17.6875 C-2.82111328 17.23310547 -3.57972656 16.77871094 -4.36132812 16.31054688 C-6.23282995 15.19235396 -8.11189393 14.08984109 -10 13 C-6.72982763 8.61319871 -3.45112701 4.24754093 0 0 Z " fill="#048ACC" transform="translate(635,593)"/>
<path d="M0 0 C2.43271705 4.86543409 1.52347166 11.0430966 0.1640625 16.125 C-5.18540574 30.77320834 -13.47253571 42.37068133 -23.43554688 54.13867188 C-24.90148911 55.88279541 -26.33958264 57.6450638 -27.765625 59.421875 C-33.7521645 66.87608225 -33.7521645 66.87608225 -36 68 C-34.01372576 61.78767667 -31.76387831 55.73985076 -29.26953125 49.71484375 C-28.91541672 48.85548721 -28.56130219 47.99613068 -28.19645691 47.11073303 C-27.44924259 45.30077244 -26.70038278 43.49149036 -25.94995117 41.68286133 C-24.82661351 38.97156447 -23.71286258 36.25646581 -22.59960938 33.54101562 C-19.15793781 25.19610684 -15.618338 16.92004002 -11.63671875 8.81640625 C-11.31435745 8.150681 -10.99199615 7.48495575 -10.65986633 6.79905701 C-7.99805404 1.51448326 -5.97464848 -0.32295397 0 0 Z " fill="#FB912F" transform="translate(771,100)"/>
<path d="M0 0 C3.58940491 1.31956393 6.59944337 2.90832496 9.765625 5.046875 C10.65636719 5.645 11.54710937 6.243125 12.46484375 6.859375 C13.38394531 7.48328125 14.30304687 8.1071875 15.25 8.75 C16.15363281 9.3584375 17.05726563 9.966875 17.98828125 10.59375 C19.7836628 11.80272636 21.5773152 13.01427495 23.36914062 14.22851562 C26.69403446 16.46732684 30.04829553 18.66037191 33.40917969 20.84472656 C33.93415039 21.2259668 34.45912109 21.60720703 35 22 C35 22.33 35 22.66 35 23 C29.39658479 24.12256971 23.8181699 24.32721317 18.125 24.5625 C17.15046875 24.60568359 16.1759375 24.64886719 15.171875 24.69335938 C12.78137198 24.79882274 10.39077556 24.90094175 8 25 C5.82758085 19.39375704 3.96972712 13.77776465 2.3125 8 C2.08755859 7.22527344 1.86261719 6.45054687 1.63085938 5.65234375 C1.08446633 3.76903154 0.54183106 1.88462976 0 0 Z " fill="#048ACC" transform="translate(549,519)"/>
<path d="M0 0 C0.66 0.33 1.32 0.66 2 1 C-2.61768104 6.04693849 -7.28483824 11.04401744 -12 16 C-12.70898438 16.75023437 -13.41796875 17.50046875 -14.1484375 18.2734375 C-21.5230437 25.38108963 -32.30285475 30.02439624 -42 33 C-38.58789597 28.33010075 -35.05789499 23.7603583 -31.4375 19.25 C-30.35275391 17.89648438 -30.35275391 17.89648438 -29.24609375 16.515625 C-23.98908831 10.62777891 -17.90967859 7.87183771 -10.8125 4.6875 C-9.80251953 4.22021484 -8.79253906 3.75292969 -7.75195312 3.27148438 C-6.78837891 2.83513672 -5.82480469 2.39878906 -4.83203125 1.94921875 C-3.95264893 1.55049561 -3.0732666 1.15177246 -2.16723633 0.7409668 C-1.45204834 0.49644775 -0.73686035 0.25192871 0 0 Z " fill="#048ACC" transform="translate(599,554)"/>
<path d="M0 0 C0.33 3.63 0.66 7.26 1 11 C-1.4440625 12.0209375 -1.4440625 12.0209375 -3.9375 13.0625 C-6.69322601 14.34953922 -6.69322601 14.34953922 -9 16 C-10.3295321 20.05857167 -10.34038435 21.97884694 -9 26 C-9.77734375 28.69921875 -9.77734375 28.69921875 -10.9375 31.6875 C-11.31777344 32.68136719 -11.69804688 33.67523437 -12.08984375 34.69921875 C-12.39019531 35.45847656 -12.69054687 36.21773437 -13 37 C-15.68387755 34.31612245 -16.09546996 31.82898587 -17.125 28.1875 C-17.47820313 26.96417969 -17.83140625 25.74085938 -18.1953125 24.48046875 C-19.51194448 18.78571588 -19.51194448 18.78571588 -19 16 C-16.83984375 13.53515625 -16.83984375 13.53515625 -13.9375 11.0625 C-12.93847656 10.20011719 -11.93945312 9.33773437 -10.91015625 8.44921875 C-9.94980469 7.64097656 -8.98945312 6.83273437 -8 6 C-6.62492838 4.79174816 -5.24991374 3.58343149 -3.875 2.375 C-1 0 -1 0 0 0 Z " fill="#048ACC" transform="translate(618,569)"/>
<path d="M0 0 C2.91261983 2.87448405 5.64151525 5.64846904 8 9 C6.41905075 13.37881338 2.97865955 15.82536398 -0.5 18.6875 C-1.76800342 19.74741159 -3.03492254 20.80862164 -4.30078125 21.87109375 C-4.92678223 22.39558105 -5.5527832 22.92006836 -6.19775391 23.46044922 C-9.57341147 26.34407108 -12.79002133 29.39928072 -16.01171875 32.453125 C-18 34 -18 34 -21 34 C-20.40574219 33.05382812 -19.81148437 32.10765625 -19.19921875 31.1328125 C-12.72153101 20.80231334 -6.34066596 10.41508629 0 0 Z " fill="#048ACC" transform="translate(580,604)"/>
<path d="M0 0 C0.33 0 0.66 0 1 0 C1 6.93 1 13.86 1 21 C-1.330625 22.11375 -3.66125 23.2275 -6.0625 24.375 C-6.78187744 24.72224121 -7.50125488 25.06948242 -8.24243164 25.42724609 C-12.43194472 27.40475561 -16.51257681 28.84459065 -21 30 C-18.38464169 25.22020722 -15.57809999 20.97514062 -12.1875 16.6875 C-8.36499212 11.81842903 -4.74475224 6.86223332 -1.27734375 1.73046875 C-0.85582031 1.15941406 -0.43429687 0.58835937 0 0 Z " fill="#048ACC" transform="translate(597,642)"/>
<path d="M0 0 C0.99 0 1.98 0 3 0 C2.67 1.65 2.34 3.3 2 5 C1.34 5 0.68 5 0 5 C-0.33 5.99 -0.66 6.98 -1 8 C-1.66 8 -2.32 8 -3 8 C-3 8.99 -3 9.98 -3 11 C-3.66 11 -4.32 11 -5 11 C-5.33 11.99 -5.66 12.98 -6 14 C-6.66 14 -7.32 14 -8 14 C-8.020625 14.763125 -8.04125 15.52625 -8.0625 16.3125 C-8.371875 17.199375 -8.68125 18.08625 -9 19 C-12.375 20.625 -12.375 20.625 -16 22 C-16.47308594 22.47824219 -16.94617188 22.95648437 -17.43359375 23.44921875 C-19.34981566 25.34632623 -21.20979973 26.14614771 -23.6875 27.1875 C-24.49574219 27.53167969 -25.30398438 27.87585938 -26.13671875 28.23046875 C-26.75160156 28.48441406 -27.36648438 28.73835937 -28 29 C-27.67 27.68 -27.34 26.36 -27 25 C-26.34 25 -25.68 25 -25 25 C-25 24.01 -25 23.02 -25 22 C-24.34 22 -23.68 22 -23 22 C-22.87625 21.360625 -22.7525 20.72125 -22.625 20.0625 C-22.41875 19.381875 -22.2125 18.70125 -22 18 C-21.34 17.67 -20.68 17.34 -20 17 C-19.7834375 16.071875 -19.7834375 16.071875 -19.5625 15.125 C-18.89502155 12.60341474 -18.0181135 11.6144908 -16 10 C-15.34 10 -14.68 10 -14 10 C-14 9.34 -14 8.68 -14 8 C-12.21046815 7.16209211 -10.41830305 6.32980604 -8.625 5.5 C-7.12839844 4.80390625 -7.12839844 4.80390625 -5.6015625 4.09375 C-3 3 -3 3 -1 3 C-0.67 2.01 -0.34 1.02 0 0 Z " fill="#048ACC" transform="translate(678,493)"/>
<path d="M0 0 C1 2 1 2 0.46191406 4.14794922 C-4.16859545 17.14825998 -8.42193791 27.80598342 -19 37 C-20 35 -20 35 -19.53442383 33.12402344 C-18.63519087 30.66274138 -17.73460394 28.20283313 -16.8125 25.75 C-16.50763672 24.90308594 -16.20277344 24.05617188 -15.88867188 23.18359375 C-13.17784325 15.87515432 -9.53734844 10.37887918 -4.25 4.625 C-3.45078125 3.75101562 -2.6515625 2.87703125 -1.828125 1.9765625 C-1.22484375 1.32429688 -0.6215625 0.67203125 0 0 Z " fill="#048ACC" transform="translate(643,481)"/>
<path d="M0 0 C2.31629804 2.31629804 2.38692811 3.16697936 2.8515625 6.32421875 C2.98046875 7.18853516 3.109375 8.05285156 3.2421875 8.94335938 C3.43167969 10.30170898 3.43167969 10.30170898 3.625 11.6875 C3.82609375 13.0168457 3.82609375 13.0168457 4.03125 14.37304688 C4.74646442 19.3029177 5.14987594 24.02003117 5 29 C1.35008834 27.68197635 -0.7895201 26.40785992 -4 24 C-2.68 16.08 -1.36 8.16 0 0 Z " fill="#048ACC" transform="translate(599,465)"/>
<path d="M0 0 C2.12406054 3.62013796 2.85012346 7.42794469 3.625 11.5 C3.82609375 12.49580078 3.82609375 12.49580078 4.03125 13.51171875 C4.66826364 16.7682885 5 19.66414099 5 23 C-0.75 22.125 -0.75 22.125 -3 21 C-2.41523944 13.90593106 -1.36766005 6.98436101 0 0 Z " fill="#048ACC" transform="translate(572,459)"/>
<path d="M0 0 C2.08432499 3.12648749 3.28558611 6.05730868 4.625 9.5625 C5.07101562 10.71878906 5.51703125 11.87507812 5.9765625 13.06640625 C7 16 7 16 7 18 C4.09399739 19.25664978 2.20395416 20 -1 20 C-1.02722517 17.79173622 -1.04649729 15.58337362 -1.0625 13.375 C-1.07410156 12.14523437 -1.08570313 10.91546875 -1.09765625 9.6484375 C-1.00863924 6.32276209 -0.63686087 3.25952412 0 0 Z " fill="#048ACC" transform="translate(615,627)"/>
<path d="M0 0 C2 1 2 1 2 1 Z " fill="#036494" transform="translate(681,492)"/>
<path d="M0 0 C2 1 2 1 2 1 Z " fill="#036494" transform="translate(683,491)"/>
<path d="M0 0 C2 1 2 1 2 1 Z " fill="#FB912F" transform="translate(758,259)"/>
<path d="" fill="#036494" transform="translate(0,0)"/>
<path d="" fill="#036494" transform="translate(0,0)"/>
<path d="" fill="#036494" transform="translate(0,0)"/>
<path d="" fill="#036494" transform="translate(0,0)"/>
<path d="" fill="#FB912F" transform="translate(0,0)"/>
</svg>
