<?xml version="1.0" encoding="UTF-8"?>
<svg version="1.1" xmlns="http://www.w3.org/2000/svg" width="571" height="571">
<path d="M0 0 C9.1785435 10.16700203 13.84711938 22.34428055 13.3515625 36.0546875 C11.97139792 49.82267074 7.07660023 60.20034924 -2.9140625 69.7578125 C-8.61774994 74.41120455 -14.8448652 77.4690288 -21.96875 79.25 C-21.96875 102.02 -21.96875 124.79 -21.96875 148.25 C-0.84875 148.25 20.27125 148.25 42.03125 148.25 C44.34125 143.96 46.65125 139.67 49.03125 135.25 C55.43858293 126.1605277 65.21614688 119.83546993 76.03125 117.25 C79.17127772 116.84796555 82.24316128 116.77172771 85.40625 116.8125 C86.65233032 116.82385986 86.65233032 116.82385986 87.92358398 116.83544922 C94.57838391 117.01336074 100.0847159 118.14704279 106.03125 121.25 C106.90136719 121.69730469 107.77148438 122.14460937 108.66796875 122.60546875 C118.81832316 128.26478444 126.30179299 136.17450126 130.0703125 147.32421875 C133.93937806 162.31232785 132.53423833 175.21556408 124.8046875 188.58203125 C117.62475995 199.38355221 106.66734155 205.9913033 94.09985352 208.89916992 C90.57144237 209.49757979 87.10098563 209.49927138 83.53125 209.4375 C82.82355469 209.43685547 82.11585938 209.43621094 81.38671875 209.43554688 C77.74253073 209.40556727 74.98408666 209.23515293 71.44360352 208.12060547 C68.29742998 207.73233133 67.21942011 208.12221179 64.5562439 209.93080139 C61.65532209 212.56392643 58.92029445 215.32248103 56.21484375 218.15234375 C55.19120911 219.19025041 54.16562562 220.22623827 53.13819885 221.26039124 C50.43907964 223.98815821 47.76844143 226.74225567 45.10253906 229.50244141 C42.40692411 232.28264678 39.68325685 235.03506622 36.96289062 237.79101562 C25.46054015 249.38552234 25.46054015 249.38552234 14.57142639 261.5483551 C11.97206362 264.42022902 9.0284545 266.80330245 6.03125 269.25 C6.22460938 269.806875 6.41796875 270.36375 6.6171875 270.9375 C7.44634109 273.36749467 8.24131961 275.80699576 9.03125 278.25 C9.423125 279.44625 9.815 280.6425 10.21875 281.875 C13.32035311 295.20924242 10.72862822 308.4222524 3.84375 320.0625 C-3.41516639 330.64329338 -13.73145176 337.88682789 -26.34375 340.6875 C-39.28224138 342.4746873 -50.20148846 339.85282166 -61.34375 333.25 C-62.21 332.59 -63.07625 331.93 -63.96875 331.25 C-64.938125 330.569375 -65.9075 329.88875 -66.90625 329.1875 C-74.82383102 322.37131477 -80.20105473 311.23772645 -81.19189453 300.92822266 C-81.8002878 291.03181932 -81.79229266 282.14010599 -76.96875 273.25 C-76.30875 271.6 -75.64875 269.95 -74.96875 268.25 C-96.08875 247.13 -117.20875 226.01 -138.96875 204.25 C-142.26875 205.24 -145.56875 206.23 -148.96875 207.25 C-160.79844692 210.20742423 -172.45526412 208.46450141 -183.03125 202.625 C-194.25737785 195.46988555 -202.41441514 185.20433183 -205.5 172.1640625 C-207.73486774 158.2706347 -204.99790258 144.84389262 -196.96875 133.25 C-189.22962815 123.71749875 -179.8878449 118.10749359 -167.96875 115.25 C-164.20703125 114.9140625 -164.20703125 114.9140625 -160.28125 114.875 C-158.99863281 114.84664062 -157.71601563 114.81828125 -156.39453125 114.7890625 C-152.57326128 114.97109098 -149.30036867 116.03609866 -145.69213867 117.27880859 C-144.08141731 117.82944473 -144.08141731 117.82944473 -142.43815613 118.39120483 C-141.62325211 118.67460724 -140.80834808 118.95800964 -139.96875 119.25 C-131.5893526 111.00946068 -123.22610705 102.7529069 -114.88324642 94.47536945 C-111.00903386 90.63250464 -107.12942405 86.79543315 -103.23706055 82.97094727 C-99.48276585 79.28171824 -95.74320593 75.57813601 -92.01352119 71.86403465 C-90.58613486 70.44775735 -89.15346743 69.03678265 -87.71555901 67.63118935 C-85.70631647 65.66533611 -83.71647707 63.68166794 -81.73022461 61.69262695 C-81.12818207 61.11215607 -80.52613953 60.53168518 -79.90585327 59.93362427 C-78.06684744 58.13598476 -78.06684744 58.13598476 -75.96875 55.25 C-75.90204775 52.51274844 -75.90204775 52.51274844 -76.96875 50.25 C-77.21753906 49.50621094 -77.46632813 48.76242188 -77.72265625 47.99609375 C-77.98949219 47.23425781 -78.25632812 46.47242188 -78.53125 45.6875 C-81.81936631 34.75410832 -80.31240528 23.36190171 -75.4921875 13.109375 C-68.72799085 0.81645141 -59.50943078 -7.19245801 -46.28125 -12.125 C-45.188125 -12.33125 -44.095 -12.5375 -42.96875 -12.75 C-42.34355469 -12.88148438 -41.71835937 -13.01296875 -41.07421875 -13.1484375 C-25.83797125 -15.69252335 -11.02876381 -10.54925234 0 0 Z M-58.67398071 76.72145081 C-59.35600555 77.41093307 -60.0380304 78.10041534 -60.74072266 78.81079102 C-61.90300888 79.97814537 -61.90300888 79.97814537 -63.08877563 81.16908264 C-63.9283078 82.02207443 -64.76783997 82.87506622 -65.6328125 83.75390625 C-66.49885101 84.62514633 -67.36488953 85.49638641 -68.25717163 86.39402771 C-70.56903251 88.72073703 -72.8767964 91.05140578 -75.18225098 93.38446045 C-78.40590362 96.64588919 -81.63443475 99.90246143 -84.86605835 103.1559906 C-86.58521308 104.88728954 -88.30168851 106.6212545 -90.01504517 108.35829163 C-94.27577037 112.65407285 -98.59827976 116.78966268 -103.20956421 120.70860291 C-105.65292594 122.84947438 -107.89715291 125.16391543 -110.1640625 127.48828125 C-112.75719567 130.01967315 -115.55086026 132.2961471 -118.3671875 134.57421875 C-120.22270351 136.51572209 -120.7579072 137.58103867 -120.96875 140.25 C-120.29933279 142.16434864 -120.29933279 142.16434864 -119.15625 144 C-113.59468592 154.46882651 -113.69461127 165.56354416 -117.1015625 176.7578125 C-118.23416273 180.01276272 -119.51136557 183.12703337 -120.96875 186.25 C-114.00281829 193.38266944 -106.65442093 199.90932148 -98.96875 206.25 C-98.411875 205.68152344 -97.855 205.11304688 -97.28125 204.52734375 C-96.518125 203.75519531 -95.755 202.98304688 -94.96875 202.1875 C-93.855 201.05634766 -93.855 201.05634766 -92.71875 199.90234375 C-90.61768144 197.875887 -88.50184894 195.96792471 -86.2902832 194.06933594 C-82.04915562 190.36956671 -78.04672564 186.47276977 -74.07421875 182.48828125 C-73.36018387 181.77520309 -72.64614899 181.06212494 -71.91047668 180.32743835 C-70.41605925 178.83369616 -68.9228827 177.33871155 -67.4309082 175.8425293 C-65.14843011 173.55466165 -62.86061906 171.2722238 -60.57226562 168.99023438 C-59.11426232 167.53157079 -57.65656897 166.07259732 -56.19921875 164.61328125 C-55.17733711 163.59443596 -55.17733711 163.59443596 -54.1348114 162.55500793 C-53.50017471 161.91721909 -52.86553802 161.27943024 -52.21166992 160.62231445 C-51.65621994 160.06606888 -51.10076996 159.5098233 -50.52848816 158.9367218 C-50.01377457 158.38010361 -49.49906097 157.82348541 -48.96875 157.25 C-48.41578247 156.66991684 -47.86281494 156.08983368 -47.29309082 155.49217224 C-45.40040116 152.28775828 -45.56789316 149.70923538 -45.53637695 146.00292969 C-45.5261853 145.28058136 -45.51599365 144.55823303 -45.50549316 143.81399536 C-45.47536803 141.43320963 -45.46609827 139.05282627 -45.45703125 136.671875 C-45.44018415 135.01848005 -45.42203386 133.36509792 -45.40263367 131.71173096 C-45.35513068 127.36511232 -45.32532336 123.0185456 -45.29919434 118.67175293 C-45.26939026 114.23418931 -45.22285942 109.79680459 -45.17773438 105.359375 C-45.09169787 96.65633789 -45.02435426 87.95328449 -44.96875 79.25 C-46.5920187 78.5791288 -48.21742578 77.91342971 -49.84375 77.25 C-51.20113281 76.693125 -51.20113281 76.693125 -52.5859375 76.125 C-55.89320286 74.85574701 -55.89320286 74.85574701 -58.67398071 76.72145081 Z M-33.44555664 176.96240234 C-33.89793701 177.62191895 -34.35031738 178.28143555 -34.81640625 178.9609375 C-39.97351367 185.85475001 -46.20071648 191.74267932 -52.30200195 197.7890625 C-54.40309349 199.87187096 -56.49604529 201.96259696 -58.58789062 204.0546875 C-59.94223767 205.40411838 -61.29704026 206.75309223 -62.65234375 208.1015625 C-63.26718124 208.71528717 -63.88201874 209.32901184 -64.51548767 209.96133423 C-68.29098011 213.69650986 -72.18244112 217.19951727 -76.28065491 220.57943726 C-78.06779372 222.34801506 -78.98171255 223.95319807 -79.96875 226.25 C-79.33259766 226.86875 -79.33259766 226.86875 -78.68359375 227.5 C-75.52486016 230.61013769 -72.47983093 233.75903208 -69.59375 237.125 C-66.92237873 240.2055002 -64.17988818 243.19494996 -61.34375 246.125 C-60.62960937 246.86492187 -59.91546875 247.60484375 -59.1796875 248.3671875 C-56.79901802 250.39454207 -54.98823382 251.4473524 -51.96875 252.25 C-49.98990921 251.84645703 -49.98990921 251.84645703 -48.09375 250.875 C-38.55659894 247.33035886 -28.36901634 248.30702134 -19.23828125 252.47265625 C-16.5871232 253.38071211 -15.52805405 253.3408509 -12.96875 252.25 C-11.23254214 250.91401403 -11.23254214 250.91401403 -9.65625 249.1875 C-8.85767578 248.36572266 -8.85767578 248.36572266 -8.04296875 247.52734375 C-6.91102659 246.28455226 -5.78694115 245.03361443 -4.70556641 243.74658203 C2.35461608 235.41543148 10.31654518 227.90722934 18.0703125 220.23144531 C27.66551341 210.78002504 27.66551341 210.78002504 36.68798828 200.7890625 C38.61625363 198.57972321 40.74966242 196.6618293 42.96875 194.75 C43.74089844 194.0796875 44.51304687 193.409375 45.30859375 192.71875 C45.87707031 192.2340625 46.44554687 191.749375 47.03125 191.25 C46.63292969 190.18072266 46.63292969 190.18072266 46.2265625 189.08984375 C45.87335938 188.13207031 45.52015625 187.17429687 45.15625 186.1875 C44.80820312 185.24777344 44.46015625 184.30804688 44.1015625 183.33984375 C42.94730003 180.00764807 41.98874743 176.64332879 41.03125 173.25 C32.25181407 173.04962492 23.47223269 172.86592633 14.69201374 172.70341206 C10.61484547 172.62742518 6.53795916 172.54573414 2.46118164 172.45092773 C-1.47436231 172.35961696 -5.40993781 172.28339379 -9.34598732 172.21755028 C-10.84636108 172.1898142 -12.34664518 172.15667552 -13.84677696 172.11800575 C-15.95084598 172.06469804 -18.05441677 172.03074694 -20.15893555 172.0012207 C-21.9543 171.96458061 -21.9543 171.96458061 -23.78593445 171.92720032 C-27.99455788 172.35403696 -30.6851285 173.76160172 -33.44555664 176.96240234 Z " fill="#00A2E8" transform="translate(428.96875,199.75)"/>
<path d="M0 0 C3.91911373 2.33681735 6.54606809 4.63820428 8 9 C8.65448421 16.72291372 6.91699022 21.47483421 1.9765625 27.4453125 C-0.31235355 29.99983656 -2.6517886 32.50003344 -5 35 C-6.19388667 36.36945824 -7.38192374 37.74405071 -8.5625 39.125 C-11.49511889 42.49785036 -14.59779046 45.64614251 -17.8125 48.75 C-19.71026547 50.70198734 -21.49731452 52.69516319 -23.28125 54.75 C-27.51841649 59.62861387 -31.95150214 64.309627 -36.39453125 69 C-40.13276821 72.96268597 -43.767922 76.99302007 -47.33886719 81.10693359 C-49.78975619 83.90002491 -52.33285769 86.6027627 -54.875 89.3125 C-58.52342959 93.228247 -62.03250955 97.19065094 -65.375 101.375 C-70.20248657 107.39173965 -75.48270464 112.94530903 -80.76953125 118.5546875 C-83.7128424 121.68043182 -86.56830219 124.86873161 -89.37109375 128.12109375 C-92.85161809 132.13579929 -96.44036524 136.05553986 -100 140 C-101.0828125 141.2065625 -101.0828125 141.2065625 -102.1875 142.4375 C-106.73123964 147.50052417 -111.31103584 152.52904108 -115.91357422 157.53857422 C-118.79393829 160.67631113 -121.65516247 163.83003818 -124.5 167 C-131.12909912 174.38267344 -137.85186269 181.67928033 -144.58862305 188.96362305 C-149.31722118 194.07694107 -154.00822945 199.21932851 -158.65625 204.40625 C-161.9287389 208.02780438 -165.24674995 211.60653377 -168.56298828 215.18798828 C-171.52753363 218.3933853 -174.4654824 221.61936878 -177.375 224.875 C-181.23179194 229.1822202 -185.17159113 233.40678928 -189.125 237.625 C-193.21900323 241.99437497 -197.26492757 246.38350172 -201.171875 250.921875 C-204.20295466 254.36746128 -207.33826452 257.7168809 -210.45751953 261.08251953 C-213.49785683 264.36555291 -216.51435549 267.66693503 -219.5 271 C-223.00354387 274.91122897 -226.55584449 278.77383714 -230.125 282.625 C-233.84813196 286.64376527 -237.51091245 290.69889872 -241.09375 294.84375 C-243.68285047 297.77240463 -246.34197787 300.63395168 -249 303.5 C-252.80714988 307.60584139 -256.56313357 311.74128125 -260.2265625 315.9765625 C-263.2990734 319.48220269 -266.45988651 322.90798371 -269.6015625 326.3515625 C-271.55237143 328.50571307 -273.47393612 330.67718469 -275.375 332.875 C-277.9576621 335.85358907 -280.61712018 338.74886504 -283.30664062 341.63037109 C-296.04180242 355.28934755 -305.62494046 368.22365586 -312.6796875 385.5859375 C-316.78036344 395.31312229 -322.36075062 403.4664594 -329.5625 411.1875 C-330.70332031 412.425 -330.70332031 412.425 -331.8671875 413.6875 C-332.57101562 414.450625 -333.27484375 415.21375 -334 416 C-335.06699962 417.22526273 -336.12970017 418.45428613 -337.1875 419.6875 C-346.59395056 430.42266443 -356.51404299 440.68970809 -366.52157593 450.86260986 C-367.66274762 452.02620725 -368.79959074 453.1940676 -369.93179321 454.36639404 C-379.03578678 463.77806055 -387.50398762 471.00069369 -401.125 471.3125 C-409.80462271 471.22492533 -416.99934686 468.8111891 -423.40234375 462.83203125 C-429.74004229 455.56459699 -433.57641685 447.1021579 -433.3125 437.38671875 C-431.65505139 424.727955 -422.49930249 415.15775512 -414.09765625 406.30859375 C-411.94254383 404.03513891 -409.87206986 401.70845818 -407.83081055 399.33251953 C-403.91699793 394.84935278 -399.79556073 390.59914134 -395.609375 386.37109375 C-394.82411438 385.57776138 -394.03885376 384.78442902 -393.22979736 383.96705627 C-391.57735998 382.30087557 -389.9234267 380.6361772 -388.26806641 378.97290039 C-386.59201051 377.28530678 -384.92043482 375.59325153 -383.25341797 373.89672852 C-380.81947184 371.41982475 -378.37227716 368.95670671 -375.921875 366.49609375 C-374.82598053 365.37393715 -374.82598053 365.37393715 -373.70794678 364.22911072 C-366.29113848 356.84255067 -357.77136319 351.73558006 -348.4375 347.125 C-342.38698096 343.97463576 -337.4448353 340.48895689 -332.60888672 335.61914062 C-330.55961352 333.5568068 -328.4835974 331.52240475 -326.41015625 329.484375 C-317.24961893 320.53548741 -317.24961893 320.53548741 -308.60546875 311.09765625 C-303.58875765 305.26624695 -298.01671099 299.96017551 -292.54296875 294.56347656 C-285.84418601 287.98020429 -285.84418601 287.98020429 -279.53125 281.03125 C-274.37932256 275.00840149 -268.60817867 269.55310573 -262.97021484 263.99072266 C-257.68164364 258.76666692 -252.48689617 253.53335686 -247.65429688 247.87695312 C-243.97932315 243.70735484 -239.9267252 239.88981475 -235.9609375 236 C-231.99943175 232.08438041 -228.25593281 228.06378991 -224.62109375 223.84375 C-222.35753739 221.26929553 -219.95297773 218.8952606 -217.5 216.5 C-213.69130666 212.74850206 -210.08033124 208.89410231 -206.609375 204.828125 C-204.43628215 202.35966031 -202.09527631 200.08464637 -199.75 197.78125 C-197.91757513 195.91610326 -196.20646865 193.98072254 -194.5 192 C-192.2544206 189.39352391 -189.95448488 186.91065479 -187.5 184.5 C-185.06610268 182.10946833 -182.78644441 179.64953738 -180.5625 177.0625 C-178.14382221 174.25423653 -175.64100317 171.60029407 -173 169 C-170.37959391 166.41990785 -167.89676588 163.78896393 -165.5 161 C-162.48358077 157.48998489 -159.26904868 154.24948724 -155.97265625 151.00390625 C-153.42662171 148.41753849 -151.07978443 145.6846472 -148.71484375 142.93359375 C-146.4995262 140.43568444 -144.1310183 138.11975011 -141.75 135.78125 C-139.91757513 133.91610326 -138.20646865 131.98072254 -136.5 130 C-134.2544206 127.39352391 -131.95448488 124.91065479 -129.5 122.5 C-127.10722509 120.14966899 -124.86808888 117.735776 -122.6875 115.1875 C-119.92381971 111.97666245 -117.01380404 108.97732835 -114 106 C-111.04816975 103.08373397 -108.19611141 100.15394165 -105.5 97 C-102.80388859 93.84605835 -99.95183025 90.91626603 -97 88 C-94.13073759 85.16510001 -91.35513289 82.32879341 -88.75 79.25 C-84.80193678 74.62512594 -80.44621997 70.42070529 -76.12744141 66.14697266 C-72.44282839 62.48604856 -68.92833081 58.75456151 -65.5703125 54.7890625 C-63.16568944 52.04946708 -60.54535448 49.53704432 -57.94921875 46.98046875 C-56.14750724 45.14987209 -54.47426102 43.26968521 -52.8125 41.3125 C-49.55569958 37.51664296 -46.05387562 34.01377547 -42.5 30.5 C-39.02969285 27.06867412 -35.60009875 23.65957568 -32.4375 19.9375 C-12.71597766 -3.07094273 -12.71597766 -3.07094273 0 0 Z " fill="#FF7F27" transform="translate(442,30)"/>
</svg>
